<?xml version="1.0" standalone="no"?><!DOCTYPE svg PUBLIC "-//W3C//DTD SVG 1.1//EN" "http://www.w3.org/Graphics/SVG/1.1/DTD/svg11.dtd"><svg t="1745507048869" class="icon" viewBox="0 0 1024 1024" version="1.1" xmlns="http://www.w3.org/2000/svg" p-id="1633" xmlns:xlink="http://www.w3.org/1999/xlink" width="200" height="200"><path d="M640 96c-52.64 0-96 43.36-96 96s43.36 96 96 96 96-43.36 96-96-43.36-96-96-96z m0 64c18.016 0 32 14.016 32 32 0 18.016-14.016 32-32 32-18.016 0-32-14.016-32-32 0-18.016 14.016-32 32-32z m-175.008 88.992l-115.008 13.024a63.04 63.04 0 0 0-45.984 28.992L241.536 387.84a31.968 31.968 0 0 0 53.632 34.752l62.848-96.608 72.96-8L384 451.04c-108.256 15.616-192 108.48-192 220.992 0 123.36 100.64 224 224 224s224-100.64 224-224c0-10.88-1.504-21.504-3.008-32h41.024l36.096 163.712a31.872 31.872 0 0 0 62.24-13.568l-35.36-164.128C734.624 596.736 707.872 576 678.016 576h-60a224.16 224.16 0 0 0-53.024-70.016l37.024-102.976a96.096 96.096 0 0 0-45.024-116.992L503.04 256v0.992c-11.52-6.112-25.152-9.504-38.048-8z m32 77.024l30.016 16c14.24 7.616 20.48 23.872 14.976 38.976l-32 88a219.776 219.776 0 0 0-58.976-17.984l45.984-124.992zM416 512c88.736 0 160 71.264 160 160s-71.264 160-160 160-160-71.264-160-160 71.264-160 160-160z" fill="#000000" p-id="1634"></path></svg>